# xmcd
#
# Track frame offsets: 
#        150
#        19203
#        36457
#        55179
#        71199
#        89125
#        111939
#        133522
#        151410
#        166830
#        186046
#
# Disc length: 2685 seconds
#
# Revision: 0
# Processed by: cddbd v1.5.2PL0 Copyright (c) Steve Scherf et al.
# Submitted via: ExactAudioCopy v1.0b3
#
DISCID=9b0a7b0b
DTITLE=Thorbjørn Risager - Dust and Scatches
DYEAR=2011
DGENRE=Blues
TTITLE0=Single Tear
TTITLE1=More
TTITLE2=Back Home
TTITLE3=In The Back Of My Mind
TTITLE4=Precious Time
TTITLE5=End Of Time
TTITLE6=Dealer's Dealing
TTITLE7=All Your Dollars
TTITLE8=On My Way
TTITLE9=Make It Real
TTITLE10=House Rocking Band
EXTD=
EXTT0=
EXTT1=
EXTT2=
EXTT3=
EXTT4=
EXTT5=
EXTT6=
EXTT7=
EXTT8=
EXTT9=
EXTT10=
PLAYORDER=
